<mxfile host="app.diagrams.net" modified="2022-03-19T07:09:02.965Z" agent="5.0 (Windows NT 10.0; Win64; x64) AppleWebKit/537.36 (KHTML, like Gecko) Chrome/99.0.4844.51 Safari/537.36 Edg/99.0.1150.39" etag="TuFPs5jMdjBUWcw56tjy" version="17.1.3" type="github">
  <diagram id="0WvtyOaz615zLvqBjxkU" name="Страница 1">
    <mxGraphModel dx="982" dy="378" grid="1" gridSize="10" guides="1" tooltips="1" connect="1" arrows="1" fold="1" page="0" pageScale="1" pageWidth="1169" pageHeight="827" background="#EEEEEE" math="0" shadow="0">
      <root>
        <mxCell id="0" />
        <mxCell id="1" parent="0" />
        <mxCell id="1xSHqwZw4sThJ98aLPBA-14" value="Cервер (Docker-compose)" style="swimlane;startSize=20;horizontal=1;containerType=tree;fillColor=#F5AB50;strokeColor=#909090;fontColor=#1A1A1A;" parent="1" vertex="1">
          <mxGeometry x="320" y="20" width="360" height="300" as="geometry">
            <mxRectangle x="330" y="50" width="80" height="20" as="alternateBounds" />
          </mxGeometry>
        </mxCell>
        <mxCell id="1xSHqwZw4sThJ98aLPBA-48" style="edgeStyle=orthogonalEdgeStyle;rounded=1;orthogonalLoop=1;jettySize=auto;html=1;fontSize=10;startArrow=classic;startFill=1;exitX=0.5;exitY=0;exitDx=0;exitDy=0;labelBackgroundColor=#EEEEEE;strokeColor=#182E3E;fontColor=#1A1A1A;" parent="1xSHqwZw4sThJ98aLPBA-14" source="1xSHqwZw4sThJ98aLPBA-40" target="1xSHqwZw4sThJ98aLPBA-7" edge="1">
          <mxGeometry relative="1" as="geometry">
            <Array as="points">
              <mxPoint x="88" y="92.5" />
            </Array>
          </mxGeometry>
        </mxCell>
        <mxCell id="1xSHqwZw4sThJ98aLPBA-49" style="edgeStyle=orthogonalEdgeStyle;rounded=1;orthogonalLoop=1;jettySize=auto;html=1;entryX=0;entryY=0.5;entryDx=0;entryDy=0;fontSize=10;startArrow=classic;startFill=1;exitX=0.5;exitY=1;exitDx=0;exitDy=0;labelBackgroundColor=#EEEEEE;strokeColor=#182E3E;fontColor=#1A1A1A;" parent="1xSHqwZw4sThJ98aLPBA-14" source="1xSHqwZw4sThJ98aLPBA-40" target="1xSHqwZw4sThJ98aLPBA-44" edge="1">
          <mxGeometry relative="1" as="geometry" />
        </mxCell>
        <mxCell id="1xSHqwZw4sThJ98aLPBA-40" value="&lt;span style=&quot;font-size: 12px&quot;&gt;NGINX&lt;/span&gt;&lt;br style=&quot;font-size: 12px&quot;&gt;&lt;span style=&quot;font-size: 12px&quot;&gt;(обратный прокси-сервер)&lt;/span&gt;" style="ellipse;whiteSpace=wrap;html=1;align=center;newEdgeStyle={&quot;edgeStyle&quot;:&quot;entityRelationEdgeStyle&quot;,&quot;startArrow&quot;:&quot;none&quot;,&quot;endArrow&quot;:&quot;none&quot;,&quot;segment&quot;:10,&quot;curved&quot;:1};treeFolding=1;treeMoving=1;fontSize=10;fillColor=#F5AB50;strokeColor=#909090;fontColor=#1A1A1A;" parent="1xSHqwZw4sThJ98aLPBA-14" vertex="1">
          <mxGeometry x="20" y="125" width="136" height="65" as="geometry" />
        </mxCell>
        <mxCell id="1xSHqwZw4sThJ98aLPBA-7" value="PostgreSQL" style="shape=datastore;whiteSpace=wrap;html=1;fillColor=#F5AB50;strokeColor=#909090;fontColor=#1A1A1A;" parent="1xSHqwZw4sThJ98aLPBA-14" vertex="1">
          <mxGeometry x="190" y="62.5" width="90" height="60" as="geometry" />
        </mxCell>
        <mxCell id="1xSHqwZw4sThJ98aLPBA-44" value="ML-модель" style="rounded=1;whiteSpace=wrap;html=1;fontSize=10;fillColor=#F5AB50;strokeColor=#909090;fontColor=#1A1A1A;" parent="1xSHqwZw4sThJ98aLPBA-14" vertex="1">
          <mxGeometry x="190" y="212.5" width="80" height="40" as="geometry" />
        </mxCell>
        <mxCell id="1xSHqwZw4sThJ98aLPBA-56" value="API сервера" style="rounded=1;whiteSpace=wrap;html=1;fontSize=10;fillColor=#F5AB50;strokeColor=#909090;fontColor=#1A1A1A;" parent="1xSHqwZw4sThJ98aLPBA-14" vertex="1">
          <mxGeometry x="200" y="137.5" width="80" height="40" as="geometry" />
        </mxCell>
        <mxCell id="1xSHqwZw4sThJ98aLPBA-57" style="edgeStyle=orthogonalEdgeStyle;rounded=1;orthogonalLoop=1;jettySize=auto;html=1;entryX=0;entryY=0.5;entryDx=0;entryDy=0;fontSize=10;startArrow=classic;startFill=1;exitX=1;exitY=0.5;exitDx=0;exitDy=0;labelBackgroundColor=#EEEEEE;strokeColor=#182E3E;fontColor=#1A1A1A;" parent="1xSHqwZw4sThJ98aLPBA-14" source="1xSHqwZw4sThJ98aLPBA-40" target="1xSHqwZw4sThJ98aLPBA-56" edge="1">
          <mxGeometry relative="1" as="geometry">
            <mxPoint x="88" y="187.5" as="sourcePoint" />
            <mxPoint x="185" y="242.5" as="targetPoint" />
          </mxGeometry>
        </mxCell>
        <mxCell id="37tknQmFLvV-MNYWz1fr-12" value="" style="verticalLabelPosition=bottom;verticalAlign=top;html=1;shape=mxgraph.basic.polygon;polyCoords=[[0.25,0],[1,0],[1,0.25],[1,0.75],[1,1],[0.25,1],[0,1],[0,0.25]];polyline=0;strokeColor=#FF0000;fillColor=none;" vertex="1" parent="1xSHqwZw4sThJ98aLPBA-14">
          <mxGeometry x="20" y="50" width="280" height="140" as="geometry" />
        </mxCell>
        <mxCell id="37tknQmFLvV-MNYWz1fr-14" value="Алан" style="verticalLabelPosition=bottom;verticalAlign=top;html=1;shape=mxgraph.basic.polygon;polyCoords=[[0.25,0],[1,0],[1,0.25],[1,0.75],[0.75,1],[0.25,1],[0,0.75],[0,0]];polyline=0;strokeColor=#0000FF;fillColor=none;" vertex="1" parent="1xSHqwZw4sThJ98aLPBA-14">
          <mxGeometry x="20" y="190" width="280" height="87.5" as="geometry" />
        </mxCell>
        <UserObject label="Леонард" placeholders="1" name="Variable" id="37tknQmFLvV-MNYWz1fr-26">
          <mxCell style="text;html=1;strokeColor=none;fillColor=none;align=center;verticalAlign=middle;whiteSpace=wrap;overflow=hidden;" vertex="1" parent="1xSHqwZw4sThJ98aLPBA-14">
            <mxGeometry x="130" y="30" width="80" height="20" as="geometry" />
          </mxCell>
        </UserObject>
        <mxCell id="1xSHqwZw4sThJ98aLPBA-66" style="edgeStyle=orthogonalEdgeStyle;rounded=1;orthogonalLoop=1;jettySize=auto;html=1;entryX=0;entryY=0.5;entryDx=0;entryDy=0;fontSize=10;startArrow=classic;startFill=1;labelBackgroundColor=#EEEEEE;strokeColor=#182E3E;fontColor=#1A1A1A;" parent="1" source="1xSHqwZw4sThJ98aLPBA-62" target="1xSHqwZw4sThJ98aLPBA-40" edge="1">
          <mxGeometry relative="1" as="geometry" />
        </mxCell>
        <mxCell id="1xSHqwZw4sThJ98aLPBA-67" value="HTTP" style="edgeLabel;html=1;align=center;verticalAlign=middle;resizable=0;points=[];fontSize=10;labelBackgroundColor=#EEEEEE;fontColor=#1A1A1A;" parent="1xSHqwZw4sThJ98aLPBA-66" vertex="1" connectable="0">
          <mxGeometry x="-0.2514" relative="1" as="geometry">
            <mxPoint as="offset" />
          </mxGeometry>
        </mxCell>
        <mxCell id="1xSHqwZw4sThJ98aLPBA-62" value="Клиент" style="swimlane;childLayout=stackLayout;horizontal=1;startSize=30;horizontalStack=0;rounded=1;fontSize=14;fontStyle=0;strokeWidth=2;resizeParent=0;resizeLast=1;shadow=0;dashed=0;align=center;fillColor=#F5AB50;strokeColor=#909090;fontColor=#1A1A1A;" parent="1" vertex="1">
          <mxGeometry x="40" y="120" width="200" height="120" as="geometry" />
        </mxCell>
        <mxCell id="1xSHqwZw4sThJ98aLPBA-63" value="+ Desktop приложение на QT&#xa;+ Личные чаты&#xa;+ Обмен текстовыми &#xa;сообщениями и изображениями" style="align=left;strokeColor=none;fillColor=none;spacingLeft=4;fontSize=12;verticalAlign=top;resizable=0;rotatable=0;part=1;fontColor=#1A1A1A;" parent="1xSHqwZw4sThJ98aLPBA-62" vertex="1">
          <mxGeometry y="30" width="200" height="90" as="geometry" />
        </mxCell>
        <mxCell id="37tknQmFLvV-MNYWz1fr-11" value="Иван" style="verticalLabelPosition=bottom;verticalAlign=top;html=1;shape=mxgraph.basic.polygon;polyCoords=[[0.25,0],[0.75,0],[1,0.25],[1,0.75],[0.75,1],[0.25,1],[0,0.75],[0,0.25]];polyline=0;fillColor=none;strokeColor=#80FF00;" vertex="1" parent="1">
          <mxGeometry y="80" width="340" height="200" as="geometry" />
        </mxCell>
      </root>
    </mxGraphModel>
  </diagram>
</mxfile>
